<?xml version="1.0" encoding="utf-8"?>
<!-- Svg Vector Icons : http://www.onlinewebfonts.com/icon -->
<!DOCTYPE svg PUBLIC "-//W3C//DTD SVG 1.1//EN" "http://www.w3.org/Graphics/SVG/1.1/DTD/svg11.dtd">
<svg version="1.1" xmlns="http://www.w3.org/2000/svg" xmlns:xlink="http://www.w3.org/1999/xlink" x="0px" y="0px" viewBox="0 0 1000 1000" enable-background="new 0 0 1000 1000" xml:space="preserve" width="38" height="38">
<metadata> Svg Vector Icons : http://www.onlinewebfonts.com/icon </metadata>
<g><g><path d="M990,255v-58.8c0-21.7-17.5-39.2-39.2-39.2H49.2C27.5,157,10,174.5,10,196.2V255h98v98H10v98h98v98H10v98h98v98H10v58.8c0,21.7,17.5,39.2,39.2,39.2h901.6c21.7,0,39.2-17.6,39.2-39.2V745h-98v-98h98v-98h-98v-98h98v-98h-98v-98H990z M402,647V353l245,147L402,647z"/></g></g>
</svg>
